<svg width="30" height="30" viewBox="0 0 30 30" fill="none" xmlns="http://www.w3.org/2000/svg">
<path d="M6.40125 22.255C9.02427 20.7724 11.987 19.9954 15 20C18.125 20 21.0587 20.8188 23.5987 22.255M18.75 12.5C18.75 13.4946 18.3549 14.4484 17.6517 15.1517C16.9484 15.8549 15.9946 16.25 15 16.25C14.0054 16.25 13.0516 15.8549 12.3483 15.1517C11.6451 14.4484 11.25 13.4946 11.25 12.5C11.25 11.5054 11.6451 10.5516 12.3483 9.84835C13.0516 9.14509 14.0054 8.75 15 8.75C15.9946 8.75 16.9484 9.14509 17.6517 9.84835C18.3549 10.5516 18.75 11.5054 18.75 12.5ZM26.25 15C26.25 16.4774 25.959 17.9403 25.3936 19.3052C24.8283 20.6701 23.9996 21.9103 22.955 22.955C21.9103 23.9996 20.6701 24.8283 19.3052 25.3936C17.9403 25.959 16.4774 26.25 15 26.25C13.5226 26.25 12.0597 25.959 10.6948 25.3936C9.3299 24.8283 8.08971 23.9996 7.04505 22.955C6.00039 21.9103 5.17172 20.6701 4.60636 19.3052C4.04099 17.9403 3.75 16.4774 3.75 15C3.75 12.0163 4.93526 9.15483 7.04505 7.04505C9.15483 4.93526 12.0163 3.75 15 3.75C17.9837 3.75 20.8452 4.93526 22.955 7.04505C25.0647 9.15483 26.25 12.0163 26.25 15Z" stroke="#232325" stroke-width="2" stroke-linecap="round" stroke-linejoin="round"/>
</svg>
