<svg width="20" height="20" viewBox="0 0 20 20" fill="none" xmlns="http://www.w3.org/2000/svg">
<path d="M1 10.0006L3 8.00061M3 8.00061L10 1.00061L17 8.00061M3 8.00061V18.0006C3 18.2658 3.10536 18.5202 3.29289 18.7077C3.48043 18.8953 3.73478 19.0006 4 19.0006H7M17 8.00061L19 10.0006M17 8.00061V18.0006C17 18.2658 16.8946 18.5202 16.7071 18.7077C16.5196 18.8953 16.2652 19.0006 16 19.0006H13M7 19.0006C7.26522 19.0006 7.51957 18.8953 7.70711 18.7077C7.89464 18.5202 8 18.2658 8 18.0006V14.0006C8 13.7354 8.10536 13.481 8.29289 13.2935C8.48043 13.106 8.73478 13.0006 9 13.0006H11C11.2652 13.0006 11.5196 13.106 11.7071 13.2935C11.8946 13.481 12 13.7354 12 14.0006V18.0006C12 18.2658 12.1054 18.5202 12.2929 18.7077C12.4804 18.8953 12.7348 19.0006 13 19.0006M7 19.0006H13" stroke="black" stroke-width="2" stroke-linecap="round" stroke-linejoin="round"/>
</svg>
