<svg width="17" height="17" viewBox="0 0 17 17" fill="none" xmlns="http://www.w3.org/2000/svg">
<path d="M7.16683 3.16664H3.00016C2.55814 3.16664 2.13421 3.34223 1.82165 3.65479C1.50909 3.96736 1.3335 4.39128 1.3335 4.83331V14C1.3335 14.442 1.50909 14.8659 1.82165 15.1785C2.13421 15.491 2.55814 15.6666 3.00016 15.6666H12.1668C12.6089 15.6666 13.0328 15.491 13.3453 15.1785C13.6579 14.8659 13.8335 14.442 13.8335 14V9.83331M12.6552 1.98831C12.8089 1.82912 12.9928 1.70215 13.1962 1.6148C13.3995 1.52746 13.6182 1.48148 13.8395 1.47956C14.0608 1.47763 14.2803 1.5198 14.4851 1.6036C14.6899 1.6874 14.876 1.81116 15.0325 1.96765C15.189 2.12414 15.3127 2.31022 15.3965 2.51505C15.4803 2.71988 15.5225 2.93934 15.5206 3.16064C15.5187 3.38194 15.4727 3.60064 15.3853 3.80398C15.298 4.00732 15.171 4.19123 15.0118 4.34497L7.85683 11.5H5.50016V9.14331L12.6552 1.98831Z" stroke="#2E65F3" stroke-width="1.4" stroke-linecap="round" stroke-linejoin="round"/>
</svg>
