<svg width="22" height="18" viewBox="0 0 22 18" fill="none" xmlns="http://www.w3.org/2000/svg">
<path d="M16 17.0006H21V15.0006C21 14.3771 20.8057 13.7692 20.4441 13.2612C20.0826 12.7533 19.5718 12.3706 18.9827 12.1664C18.3937 11.9621 17.7556 11.9465 17.1573 12.1216C16.5589 12.2968 16.03 12.654 15.644 13.1436M16 17.0006H6M16 17.0006V15.0006C16 14.3446 15.874 13.7176 15.644 13.1436M15.644 13.1436C15.2726 12.2156 14.6318 11.4201 13.804 10.8597C12.9762 10.2994 11.9996 9.99991 11 9.99991C10.0004 9.99991 9.02376 10.2994 8.196 10.8597C7.36825 11.4201 6.72736 12.2156 6.356 13.1436M6 17.0006H1V15.0006C1.00005 14.3771 1.19434 13.7692 1.55586 13.2612C1.91739 12.7533 2.42819 12.3706 3.01725 12.1664C3.60632 11.9621 4.24438 11.9465 4.84274 12.1216C5.4411 12.2968 5.97003 12.654 6.356 13.1436M6 17.0006V15.0006C6 14.3446 6.126 13.7176 6.356 13.1436M14 4.00061C14 4.79626 13.6839 5.55932 13.1213 6.12193C12.5587 6.68454 11.7956 7.00061 11 7.00061C10.2044 7.00061 9.44129 6.68454 8.87868 6.12193C8.31607 5.55932 8 4.79626 8 4.00061C8 3.20496 8.31607 2.4419 8.87868 1.87929C9.44129 1.31668 10.2044 1.00061 11 1.00061C11.7956 1.00061 12.5587 1.31668 13.1213 1.87929C13.6839 2.4419 14 3.20496 14 4.00061ZM20 7.00061C20 7.53104 19.7893 8.03975 19.4142 8.41482C19.0391 8.7899 18.5304 9.00061 18 9.00061C17.4696 9.00061 16.9609 8.7899 16.5858 8.41482C16.2107 8.03975 16 7.53104 16 7.00061C16 6.47018 16.2107 5.96147 16.5858 5.5864C16.9609 5.21132 17.4696 5.00061 18 5.00061C18.5304 5.00061 19.0391 5.21132 19.4142 5.5864C19.7893 5.96147 20 6.47018 20 7.00061ZM6 7.00061C6 7.53104 5.78929 8.03975 5.41421 8.41482C5.03914 8.7899 4.53043 9.00061 4 9.00061C3.46957 9.00061 2.96086 8.7899 2.58579 8.41482C2.21071 8.03975 2 7.53104 2 7.00061C2 6.47018 2.21071 5.96147 2.58579 5.5864C2.96086 5.21132 3.46957 5.00061 4 5.00061C4.53043 5.00061 5.03914 5.21132 5.41421 5.5864C5.78929 5.96147 6 6.47018 6 7.00061Z" stroke="#232325" stroke-width="2" stroke-linecap="round" stroke-linejoin="round"/>
</svg>
