<svg width="16" height="18" viewBox="0 0 16 18" fill="none" xmlns="http://www.w3.org/2000/svg">
<path d="M6.3335 8.16667V13.1667M9.66683 8.16667V13.1667M1.3335 4.83333H14.6668M13.8335 4.83333L13.111 14.9517C13.0811 15.3722 12.8929 15.7657 12.5844 16.053C12.2759 16.3403 11.87 16.5 11.4485 16.5H4.55183C4.13028 16.5 3.72439 16.3403 3.4159 16.053C3.10742 15.7657 2.91926 15.3722 2.88933 14.9517L2.16683 4.83333H13.8335ZM10.5002 4.83333V2.33333C10.5002 2.11232 10.4124 1.90036 10.2561 1.74408C10.0998 1.5878 9.88784 1.5 9.66683 1.5H6.3335C6.11248 1.5 5.90052 1.5878 5.74424 1.74408C5.58796 1.90036 5.50016 2.11232 5.50016 2.33333V4.83333H10.5002Z" stroke="#F32D2D" stroke-width="1.4" stroke-linecap="round" stroke-linejoin="round"/>
</svg>
