<svg width="20" height="20" viewBox="0 0 20 20" fill="none" xmlns="http://www.w3.org/2000/svg">
<path d="M8.99972 3.88261V17.2406C8.99943 17.6551 8.85287 18.0561 8.58587 18.3732C8.31887 18.6902 7.94855 18.9028 7.54017 18.9735C7.13179 19.0443 6.71153 18.9686 6.35345 18.7599C5.99537 18.5512 5.72243 18.2228 5.58272 17.8326L3.43572 11.6826M3.43572 11.6826C2.58694 11.3217 1.88891 10.6797 1.45975 9.86328C1.0306 9.04688 0.896679 8.10729 1.08066 7.20351C1.26464 6.29973 1.75522 5.48726 2.46937 4.90361C3.18353 4.31996 4.0774 4.00096 4.99972 4.00061H6.83172C10.9317 4.00061 14.4567 2.76661 15.9997 1.00061V15.0006C14.4567 13.2346 10.9327 12.0006 6.83172 12.0006H4.99972C4.46236 12.0014 3.93037 11.8926 3.43572 11.6826ZM15.9997 11.0006C16.7954 11.0006 17.5584 10.6845 18.121 10.1219C18.6837 9.55932 18.9997 8.79626 18.9997 8.00061C18.9997 7.20496 18.6837 6.4419 18.121 5.87929C17.5584 5.31668 16.7954 5.00061 15.9997 5.00061V11.0006Z" stroke="#232325" stroke-width="2" stroke-linecap="round" stroke-linejoin="round"/>
</svg>
