<svg width="36" height="35" viewBox="0 0 36 35" fill="none" xmlns="http://www.w3.org/2000/svg">
<path fill-rule="evenodd" clip-rule="evenodd" d="M5.75 5.25C5.28587 5.25 4.84075 5.43437 4.51256 5.76256C4.18437 6.09075 4 6.53587 4 7V28C4 28.4641 4.18437 28.9092 4.51256 29.2374C4.84075 29.5656 5.28587 29.75 5.75 29.75C6.21413 29.75 6.65925 29.5656 6.98744 29.2374C7.31563 28.9092 7.5 28.4641 7.5 28V7C7.5 6.53587 7.31563 6.09075 6.98744 5.76256C6.65925 5.43437 6.21413 5.25 5.75 5.25V5.25ZM23.7628 21.5128C23.444 21.8428 23.2676 22.2849 23.2716 22.7437C23.2756 23.2025 23.4596 23.6415 23.7841 23.9659C24.1085 24.2904 24.5475 24.4744 25.0063 24.4784C25.4651 24.4824 25.9072 24.306 26.2372 23.9872L31.4873 18.7372C31.8153 18.4091 31.9996 17.964 31.9996 17.5C31.9996 17.036 31.8153 16.5909 31.4873 16.2628L26.2372 11.0128C26.0758 10.8456 25.8827 10.7123 25.6692 10.6206C25.4557 10.5289 25.2261 10.4806 24.9937 10.4786C24.7613 10.4765 24.5309 10.5208 24.3158 10.6088C24.1008 10.6968 23.9054 10.8267 23.7411 10.9911C23.5767 11.1554 23.4468 11.3508 23.3588 11.5658C23.2708 11.7809 23.2265 12.0113 23.2286 12.2437C23.2306 12.4761 23.2789 12.7057 23.3706 12.9192C23.4623 13.1327 23.5956 13.3258 23.7628 13.4872L26.0255 15.75H12.75C12.2859 15.75 11.8408 15.9344 11.5126 16.2626C11.1844 16.5908 11 17.0359 11 17.5C11 17.9641 11.1844 18.4092 11.5126 18.7374C11.8408 19.0656 12.2859 19.25 12.75 19.25H26.0255L23.7628 21.5128V21.5128Z" fill="#232325"/>
</svg>
