<svg width="20" height="20" viewBox="0 0 20 20" fill="none" xmlns="http://www.w3.org/2000/svg">
<path d="M10 2.35461C10.5374 1.74531 11.2477 1.31412 12.0362 1.1184C12.8247 0.922689 13.6542 0.971734 14.4142 1.25901C15.1741 1.54629 15.8286 2.05818 16.2905 2.72657C16.7524 3.39496 16.9998 4.18815 16.9998 5.00061C16.9998 5.81307 16.7524 6.60626 16.2905 7.27465C15.8286 7.94304 15.1741 8.45493 14.4142 8.74221C13.6542 9.02949 12.8247 9.07853 12.0362 8.88282C11.2477 8.6871 10.5374 8.25591 10 7.64661M13 19.0006H1V18.0006C1 16.4093 1.63214 14.8832 2.75736 13.758C3.88258 12.6328 5.4087 12.0006 7 12.0006C8.5913 12.0006 10.1174 12.6328 11.2426 13.758C12.3679 14.8832 13 16.4093 13 18.0006V19.0006ZM13 19.0006H19V18.0006C19.0001 16.9473 18.723 15.9125 18.1965 15.0003C17.6699 14.0881 16.9125 13.3305 16.0004 12.8038C15.0882 12.2771 14.0535 11.9998 13.0002 11.9998C11.9469 11.9997 10.9122 12.277 10 12.8036M11 5.00061C11 6.06148 10.5786 7.07889 9.82843 7.82904C9.07828 8.57918 8.06087 9.00061 7 9.00061C5.93913 9.00061 4.92172 8.57918 4.17157 7.82904C3.42143 7.07889 3 6.06148 3 5.00061C3 3.93975 3.42143 2.92233 4.17157 2.17218C4.92172 1.42204 5.93913 1.00061 7 1.00061C8.06087 1.00061 9.07828 1.42204 9.82843 2.17218C10.5786 2.92233 11 3.93975 11 5.00061Z" stroke="#2E65F3" stroke-width="2" stroke-linecap="round" stroke-linejoin="round"/>
</svg>
