<svg width="30" height="31" viewBox="0 0 30 31" fill="none" xmlns="http://www.w3.org/2000/svg">
<path d="M4.96812 23.9642C8.02832 22.2345 11.4848 21.328 15 21.3333C18.6458 21.3333 22.0685 22.2885 25.0319 23.9642M19.375 12.5833C19.375 13.7437 18.9141 14.8565 18.0936 15.6769C17.2731 16.4974 16.1603 16.9583 15 16.9583C13.8397 16.9583 12.7269 16.4974 11.9064 15.6769C11.0859 14.8565 10.625 13.7437 10.625 12.5833C10.625 11.423 11.0859 10.3102 11.9064 9.48974C12.7269 8.66927 13.8397 8.20833 15 8.20833C16.1603 8.20833 17.2731 8.66927 18.0936 9.48974C18.9141 10.3102 19.375 11.423 19.375 12.5833ZM28.125 15.5C28.125 17.2236 27.7855 18.9303 27.1259 20.5227C26.4663 22.1151 25.4995 23.562 24.2808 24.7808C23.062 25.9995 21.6151 26.9663 20.0227 27.6259C18.4303 28.2855 16.7236 28.625 15 28.625C13.2764 28.625 11.5697 28.2855 9.97728 27.6259C8.38488 26.9663 6.93799 25.9995 5.71922 24.7808C4.50045 23.562 3.53367 22.1151 2.87408 20.5227C2.21449 18.9303 1.875 17.2236 1.875 15.5C1.875 12.019 3.25781 8.68064 5.71922 6.21922C8.18064 3.75781 11.519 2.375 15 2.375C18.481 2.375 21.8194 3.75781 24.2808 6.21922C26.7422 8.68064 28.125 12.019 28.125 15.5Z" stroke="#232325" stroke-width="3" stroke-linecap="round" stroke-linejoin="round"/>
</svg>
